<svg width="1453" height="888" viewBox="0 0 1453 888" fill="none" xmlns="http://www.w3.org/2000/svg">
<line x1="29.6985" y1="644" x2="135" y2="749.302" stroke="#FFFD50" stroke-width="42" stroke-linecap="round"/>
<line x1="52.6985" y1="753" x2="158" y2="858.302" stroke="#FF50BA" stroke-width="42" stroke-linecap="round"/>
<path d="M1240.45 33.1102C1277.26 30.473 1313.94 40.1111 1344.79 60.5297C1375.63 80.9482 1398.93 111.006 1411.06 146.041C1423.2 181.077 1423.49 219.132 1411.89 254.304C1400.29 289.477 1377.46 319.801 1346.93 340.574C1316.39 361.346 1279.87 371.407 1243.02 369.195C1206.17 366.983 1171.05 352.622 1143.11 328.34C1115.18 304.057 1095.98 271.21 1088.5 234.892C1081.02 198.575 1085.68 160.817 1101.75 127.475" stroke="#FF50BA" stroke-width="65" stroke-linecap="round"/>
<path d="M1261.95 696.012C1263.72 692.104 1269.28 692.104 1271.05 696.012L1289.95 737.572C1290.45 738.672 1291.33 739.554 1292.43 740.054L1333.99 758.948C1337.9 760.725 1337.9 766.275 1333.99 768.052L1292.43 786.946C1291.33 787.446 1290.45 788.328 1289.95 789.428L1271.05 830.988C1269.28 834.896 1263.72 834.896 1261.95 830.988L1243.05 789.428C1242.55 788.328 1241.67 787.446 1240.57 786.946L1199.01 768.052C1195.1 766.275 1195.1 760.725 1199.01 758.948L1240.57 740.054C1241.67 739.554 1242.55 738.672 1243.05 737.572L1261.95 696.012Z" fill="#FFFD50"/>
</svg>
